<svg width="72" height="72" viewBox="0 0 72 72" fill="none" xmlns="http://www.w3.org/2000/svg">
<path d="M60.7501 11.1589H47.3074V6.84338C47.3074 3.12076 44.28 0.0933838 40.5574 0.0933838H31.5833C27.8606 0.0933838 24.8333 3.12076 24.8333 6.84338V11.1589H11.25C8.76487 11.1589 6.75 13.1738 6.75 15.6589V67.4066C6.75 69.8918 8.76487 71.9066 11.25 71.9066H60.75C63.2351 71.9066 65.25 69.8918 65.25 67.4066V15.6589C65.25 13.1738 63.2352 11.1589 60.7501 11.1589ZM29.3333 6.84338C29.3333 5.60138 30.3413 4.59338 31.5833 4.59338H40.5574C41.7994 4.59338 42.8074 5.60138 42.8074 6.84338V11.1589H29.3333V6.84338ZM60.7501 67.4066H11.2501V15.6589H24.8333V20.2883C24.8333 20.2883 24.7737 22.5359 27.0699 22.5359C29.6011 22.5359 29.3334 20.2883 29.3334 20.2883V15.6589H42.8075V20.2883C42.8075 20.2883 42.6579 22.5473 45.0485 22.5473C47.2985 22.5473 47.3075 20.2883 47.3075 20.2883V15.6589H60.7501L60.7501 67.4066Z" fill="black"/>
<path fill-rule="evenodd" clip-rule="evenodd" d="M29.9955 36.4759C30.146 36.3251 30.3247 36.2054 30.5215 36.1237C30.7183 36.042 30.9293 36 31.1424 36C31.3555 36 31.5665 36.042 31.7633 36.1237C31.9601 36.2054 32.1389 36.3251 32.2894 36.4759L36.0024 40.1922L39.7155 36.4759C40.0197 36.1717 40.4322 36.0008 40.8624 36.0008C41.2926 36.0008 41.7052 36.1717 42.0094 36.4759C42.3136 36.7801 42.4845 37.1927 42.4845 37.6229C42.4845 38.0531 42.3136 38.4657 42.0094 38.7699L38.2931 42.4829L42.0094 46.1959C42.3136 46.5001 42.4845 46.9127 42.4845 47.3429C42.4845 47.7731 42.3136 48.1857 42.0094 48.4899C41.7052 48.794 41.2926 48.9649 40.8624 48.9649C40.4322 48.9649 40.0197 48.794 39.7155 48.4899L36.0024 44.7736L32.2894 48.4899C31.9852 48.794 31.5726 48.9649 31.1424 48.9649C30.7122 48.9649 30.2997 48.794 29.9955 48.4899C29.6913 48.1857 29.5204 47.7731 29.5204 47.3429C29.5204 46.9127 29.6913 46.5001 29.9955 46.1959L33.7117 42.4829L29.9955 38.7699C29.8446 38.6194 29.7249 38.4406 29.6432 38.2438C29.5616 38.047 29.5195 37.836 29.5195 37.6229C29.5195 37.4098 29.5616 37.1988 29.6432 37.002C29.7249 36.8052 29.8446 36.6264 29.9955 36.4759Z" fill="black"/>
</svg>
