<svg width="38" height="34" viewBox="0 0 38 34" fill="none" xmlns="http://www.w3.org/2000/svg">
<path d="M33.776 17.9168L18.776 32.7728L3.77599 17.9168C2.7866 16.954 2.00728 15.7968 1.48709 14.5181C0.966899 13.2393 0.717116 11.8667 0.753468 10.4867C0.789819 9.10665 1.11152 7.74909 1.69831 6.49949C2.2851 5.24989 3.12426 4.13532 4.16297 3.22597C5.20167 2.31663 6.4174 1.63219 7.73362 1.21578C9.04983 0.79936 10.438 0.659982 11.8107 0.806417C13.1835 0.952852 14.511 1.38193 15.7097 2.06663C16.9085 2.75133 17.9525 3.67682 18.776 4.78481C19.6031 3.68486 20.6483 2.76746 21.8462 2.09002C23.0441 1.41259 24.369 0.989713 25.7379 0.847855C27.1067 0.705996 28.4902 0.848211 29.8015 1.2656C31.1129 1.68299 32.324 2.36656 33.3591 3.27354C34.3941 4.18052 35.2308 5.29138 35.8168 6.5366C36.4028 7.78182 36.7255 9.13458 36.7646 10.5102C36.8037 11.8859 36.5585 13.2548 36.0443 14.5313C35.53 15.8078 34.7578 16.9645 33.776 17.9288" stroke="black" stroke-width="1.5" stroke-linecap="round" stroke-linejoin="round"/>
</svg>
